<svg width="332" height="199" viewBox="0 0 332 199" fill="none" xmlns="http://www.w3.org/2000/svg">
<path d="M319.984 195.494H11.8195C7.36579 195.494 3.59726 191.988 3.59726 187.481V11.5193C3.59726 7.17866 7.1945 3.50586 11.8195 3.50586H319.984C324.438 3.50586 328.207 7.01171 328.207 11.5193V187.481C328.207 191.821 324.438 195.494 319.984 195.494Z" fill="#B9C8E6"/>
<path opacity="0.27" d="M319.985 3.50586H307.309C311.762 3.50586 315.531 7.01171 315.531 11.5193V187.481C315.531 191.821 311.934 195.494 307.309 195.494H319.985C324.438 195.494 328.207 191.988 328.207 187.481V11.5193C328.207 7.17866 324.438 3.50586 319.985 3.50586Z" fill="black"/>
<path d="M319.985 199H11.8195C5.31023 199 0 193.825 0 187.481V11.5193C0 5.17538 5.31023 0 11.8195 0H319.985C326.494 0 331.804 5.17538 331.804 11.5193V187.481C331.633 193.825 326.494 199 319.985 199ZM11.8195 7.01176C9.25008 7.01176 7.19454 9.01514 7.19454 11.5193V187.481C7.19454 189.985 9.25008 191.988 11.8195 191.988H319.985C322.554 191.988 324.61 189.985 324.61 187.481V11.5193C324.61 9.01514 322.554 7.01176 319.985 7.01176H11.8195Z" fill="#1A5A70"/>
<path d="M101.922 174.292C144.305 174.292 178.664 140.806 178.664 99.5C178.664 58.1936 144.305 24.7081 101.922 24.7081C59.5391 24.7081 25.1808 58.1936 25.1808 99.5C25.1808 140.806 59.5391 174.292 101.922 174.292Z" fill="#EEF3F4"/>
<path d="M25.1808 97.9976H25.0095C22.9539 97.8306 21.5835 96.1611 21.7548 94.3247C24.4956 53.4229 59.783 21.2023 101.922 21.2023C117.51 21.2023 132.585 25.5429 145.603 33.8902C147.316 34.8919 147.659 37.0622 146.631 38.7316C145.603 40.4011 143.376 40.735 141.663 39.7334C129.844 32.2208 115.969 28.214 101.751 28.214C63.3803 28.214 31.1762 57.4297 28.778 94.8256C28.778 96.662 27.0651 97.9976 25.1808 97.9976Z" fill="#1A5A70"/>
<path d="M84.6212 175.961C84.2786 175.961 84.1073 175.961 83.7647 175.795C51.0468 168.449 26.2086 141.737 21.9261 109.183C21.7548 107.347 23.1252 105.51 25.0095 105.343C26.8938 105.176 28.778 106.512 28.9493 108.348C32.7179 137.898 55.3292 162.272 85.1351 168.95C87.0193 169.451 88.2184 171.287 87.8758 173.123C87.8758 174.793 86.3342 175.961 84.6212 175.961Z" fill="#1A5A70"/>
<path d="M101.922 177.798C99.8667 177.798 98.3251 176.295 98.3251 174.292C98.3251 172.288 99.8667 170.786 101.922 170.786C107.233 170.786 112.371 170.285 117.51 169.117C119.395 168.783 121.279 169.951 121.793 171.788C122.135 173.624 120.936 175.46 119.052 175.961C113.399 177.297 107.575 177.798 101.922 177.798Z" fill="#1A5A70"/>
<path d="M131.899 171.955C130.529 171.955 129.159 171.12 128.645 169.784C127.788 167.948 128.645 165.945 130.529 165.277C157.594 154.091 175.067 128.215 175.067 99.667C175.067 79.9674 166.502 60.9355 151.77 47.4129C150.4 46.0773 150.228 43.907 151.599 42.4045C152.969 41.0689 155.196 40.902 156.738 42.2376C173.011 56.9288 182.261 77.964 182.261 99.5001C182.261 131.053 163.076 159.267 133.27 171.621C132.756 171.788 132.413 171.955 131.899 171.955Z" fill="#1A5A70"/>
<path d="M55.5005 69.4498C77.2554 79.2996 88.5611 96.8289 88.5611 96.8289L99.0102 86.6452L95.2416 73.7904C93.0148 66.1108 85.1352 61.1025 76.9128 62.438L55.8432 65.9439C54.3015 66.2778 53.9589 68.6151 55.5005 69.4498Z" fill="#86CEBA"/>
<path d="M71.0886 144.576C81.1951 123.373 99.1815 112.355 99.1815 112.355L88.7322 102.171L75.5423 105.844C67.6626 108.014 62.5237 115.694 63.8941 123.707L67.4914 144.242C67.6627 145.911 70.2321 146.245 71.0886 144.576Z" fill="#86CEBA"/>
<path d="M148.173 129.55C126.418 119.701 115.112 102.171 115.112 102.171L104.663 112.355L108.432 125.21C110.658 132.889 118.538 137.898 126.761 136.562L147.83 133.056C149.543 132.722 149.886 130.385 148.173 129.55Z" fill="#86CEBA"/>
<path d="M132.756 54.4245C122.649 75.6267 104.663 86.6451 104.663 86.6451L115.112 96.8288L128.302 93.1561C136.182 90.9858 141.321 83.3062 139.95 75.2928L136.353 54.7584C136.011 53.0889 133.441 52.755 132.756 54.4245Z" fill="#86CEBA"/>
<path d="M88.0472 102.338L85.649 98.6654C85.4777 98.4985 74.5146 81.8038 54.1302 72.6217C51.9033 71.62 50.7042 69.4498 51.0468 67.1125C51.3894 64.7753 53.2737 62.9388 55.5005 62.6049L76.5702 59.0991C86.5055 57.4296 96.0982 63.4397 98.839 72.9556L103.121 87.8139L88.0472 102.338ZM61.6673 68.6151C75.7137 76.1276 84.9638 86.1445 89.075 91.4867L95.0704 85.6436L91.8157 74.7921C90.1027 68.782 83.936 64.9422 77.598 65.9439L61.6673 68.6151Z" fill="#1A5A70"/>
<path d="M69.3757 149.25C69.2044 149.25 68.8618 149.25 68.6905 149.25C66.2923 148.916 64.4081 147.08 64.0655 144.909L60.4682 124.375C58.7552 114.692 64.9219 105.343 74.6859 102.672L89.9315 98.4983L105.006 113.19L101.237 115.527C101.066 115.694 83.936 126.378 74.5146 146.245C73.3156 148.081 71.4313 149.25 69.3757 149.25ZM87.7046 106.178L76.5702 109.35C70.4035 111.019 66.4637 117.029 67.4915 123.206L70.2322 138.732C77.9406 125.043 88.2185 116.028 93.7 112.021L87.7046 106.178Z" fill="#1A5A70"/>
<path d="M124.02 140.235C115.284 140.235 107.404 134.559 105.006 126.211L100.723 111.353L115.797 96.6619L118.196 100.335C118.367 100.502 129.33 117.196 149.714 126.378C151.941 127.38 153.14 129.55 152.798 131.888C152.455 134.225 150.571 136.061 148.344 136.395L127.274 139.901C126.075 140.068 125.048 140.235 124.02 140.235ZM108.603 113.357L111.858 124.208C113.571 130.218 119.737 134.058 126.075 133.056L142.006 130.385C127.96 122.872 118.71 112.856 114.598 107.513L108.603 113.357Z" fill="#1A5A70"/>
<path d="M114.084 100.836L99.0102 86.1443L102.779 83.807C102.95 83.64 120.08 72.9555 129.501 53.0889C130.529 50.9186 132.756 49.7499 135.154 50.0838C137.552 50.4177 139.436 52.2542 139.779 54.4245L143.376 74.9589C145.089 84.6417 138.923 93.9907 129.159 96.6619L114.084 100.836ZM110.145 87.1459L116.14 92.989L127.274 89.8171C133.441 88.1477 137.381 82.1375 136.353 75.9605L133.612 60.4345C125.904 74.1241 115.626 83.1392 110.145 87.1459Z" fill="#1A5A70"/>
<path d="M101.922 112.689C109.396 112.689 115.455 106.784 115.455 99.5001C115.455 92.2161 109.396 86.3113 101.922 86.3113C94.4485 86.3113 88.3897 92.2161 88.3897 99.5001C88.3897 106.784 94.4485 112.689 101.922 112.689Z" fill="white"/>
<path d="M101.922 116.195C92.5009 116.195 84.7925 108.682 84.7925 99.5C84.7925 90.318 92.5009 82.8054 101.922 82.8054C111.344 82.8054 119.052 90.318 119.052 99.5C119.052 108.682 111.344 116.195 101.922 116.195ZM101.922 89.8172C96.4407 89.8172 91.987 94.1578 91.987 99.5C91.987 104.842 96.4407 109.183 101.922 109.183C107.404 109.183 111.858 104.842 111.858 99.5C111.858 94.1578 107.233 89.8172 101.922 89.8172Z" fill="#1A5A70"/>
<path d="M308.679 50.0839H197.849C197.164 50.0839 196.65 49.5831 196.65 48.9154V41.4028C196.65 40.735 197.164 40.2341 197.849 40.2341H308.679C309.364 40.2341 309.878 40.735 309.878 41.4028V48.9154C310.049 49.5831 309.535 50.0839 308.679 50.0839Z" fill="#EEF3F4"/>
<path d="M308.679 86.3113H197.849C197.164 86.3113 196.65 85.8104 196.65 85.1427V77.6301C196.65 76.9623 197.164 76.4615 197.849 76.4615H308.679C309.364 76.4615 309.878 76.9623 309.878 77.6301V85.1427C310.049 85.8104 309.535 86.3113 308.679 86.3113Z" fill="#EEF3F4"/>
<path d="M308.679 122.706H197.849C197.164 122.706 196.65 122.205 196.65 121.537V114.024C196.65 113.357 197.164 112.856 197.849 112.856H308.679C309.364 112.856 309.878 113.357 309.878 114.024V121.537C310.049 122.038 309.535 122.706 308.679 122.706Z" fill="#EEF3F4"/>
<path d="M308.679 158.933H197.849C197.164 158.933 196.65 158.432 196.65 157.764V150.252C196.65 149.584 197.164 149.083 197.849 149.083H308.679C309.364 149.083 309.878 149.584 309.878 150.252V157.764C310.049 158.265 309.535 158.933 308.679 158.933Z" fill="#EEF3F4"/>
<path d="M308.679 52.588H197.849C195.794 52.588 194.081 50.9187 194.081 48.9153V41.4027C194.081 39.3993 195.794 37.7299 197.849 37.7299H308.679C310.734 37.7299 312.447 39.3993 312.447 41.4027V48.9153C312.619 50.9187 310.906 52.588 308.679 52.588ZM199.22 47.5796H307.48V42.5712H199.22V47.5796Z" fill="#1A5A70"/>
<path d="M308.679 88.8154H197.849C195.794 88.8154 194.081 87.1459 194.081 85.1426V77.63C194.081 75.6267 195.794 73.9573 197.849 73.9573H308.679C310.735 73.9573 312.448 75.6267 312.448 77.63V85.1426C312.619 87.1459 310.906 88.8154 308.679 88.8154ZM199.22 83.974H307.48V78.9657H199.22V83.974Z" fill="#1A5A70"/>
<path d="M308.679 125.21H197.849C195.794 125.21 194.081 123.54 194.081 121.537V114.024C194.081 112.021 195.794 110.351 197.849 110.351H308.679C310.735 110.351 312.448 112.021 312.448 114.024V121.537C312.619 123.373 310.906 125.21 308.679 125.21ZM199.22 120.201H307.48V115.193H199.22V120.201Z" fill="#1A5A70"/>
<path d="M308.679 161.437H197.849C195.794 161.437 194.081 159.768 194.081 157.764V150.252C194.081 148.248 195.794 146.579 197.849 146.579H308.679C310.735 146.579 312.448 148.248 312.448 150.252V157.764C312.619 159.768 310.906 161.437 308.679 161.437ZM199.22 156.429H307.48V151.42H199.22V156.429Z" fill="#1A5A70"/>
<path d="M261.401 185.31H191.854C190.483 185.31 189.284 184.142 189.284 182.806C189.284 181.471 190.483 180.302 191.854 180.302H261.401C262.771 180.302 263.97 181.471 263.97 182.806C263.97 184.142 262.771 185.31 261.401 185.31Z" fill="#1A5A70"/>
<path d="M290.179 185.31H274.248C272.878 185.31 271.679 184.142 271.679 182.806C271.679 181.471 272.878 180.302 274.248 180.302H290.179C291.549 180.302 292.748 181.471 292.748 182.806C292.748 184.142 291.72 185.31 290.179 185.31Z" fill="#1A5A70"/>
</svg>
