<svg width="465" height="203" viewBox="0 0 465 203" fill="none" xmlns="http://www.w3.org/2000/svg">
<path d="M447.928 182.694H16.3851C9.2166 182.694 3.48184 176.959 3.48184 169.791V16.3851C3.48184 9.21663 9.2166 3.48184 16.3851 3.48184H448.133C455.301 3.48184 461.036 9.21663 461.036 16.3851V169.791C461.036 176.959 455.096 182.694 447.928 182.694Z" fill="#86CEBA"/>
<path opacity="0.27" d="M447.928 3.27702H425.398C432.567 3.27702 438.301 9.01182 438.301 16.1803V169.586C438.301 176.754 432.567 182.489 425.398 182.489H447.928C455.096 182.489 460.831 176.754 460.831 169.586V16.1803C461.036 9.21663 455.096 3.27702 447.928 3.27702Z" fill="black"/>
<path d="M447.928 186.176H16.3851C7.3733 186.176 0 178.802 0 169.791V16.3851C0 7.3733 7.3733 0 16.3851 0H448.133C457.144 0 464.518 7.3733 464.518 16.3851V169.791C464.518 178.802 457.144 186.176 447.928 186.176ZM16.3851 6.75886C11.0599 6.75886 6.75883 11.0599 6.75883 16.3851V169.791C6.75883 175.116 11.0599 179.417 16.3851 179.417H448.133C453.458 179.417 457.759 175.116 457.759 169.791V16.3851C457.759 11.0599 453.458 6.75886 448.133 6.75886H16.3851Z" fill="#1A5A70"/>
<path d="M412.495 199.284H51.8179L56.9382 166.104H407.375L412.495 199.284Z" fill="#EEF3F4"/>
<path d="M416.386 202.561H47.7216L53.6613 162.622H410.242L416.386 202.561ZM55.9142 195.802H408.399L404.507 169.791H59.8057L55.9142 195.802Z" fill="#1A5A70"/>
<path d="M421.711 147.466H42.6012V173.887H421.711V147.466Z" fill="#6AA697"/>
<path opacity="0.27" d="M421.711 147.466H42.6012V160.574H421.711V147.466Z" fill="black"/>
<path d="M425.193 177.369H39.1194V143.984H424.989V177.369H425.193ZM46.0831 170.405H418.23V150.948H46.0831V170.405Z" fill="#1A5A70"/>
<path d="M255.403 113.876H208.91C205.633 113.876 203.175 111.214 203.175 108.142V3.48184H261.342V108.142C261.138 111.214 258.68 113.876 255.403 113.876Z" fill="#EEF3F4"/>
<path opacity="0.27" d="M214.03 113.876H208.91C205.633 113.876 203.175 111.214 203.175 108.142V3.48184H214.03V113.876Z" fill="black"/>
<path d="M255.403 117.358H208.91C203.79 117.358 199.693 113.262 199.693 108.142V0H264.824V108.142C264.619 113.057 260.523 117.358 255.403 117.358ZM206.657 6.75886V107.937C206.657 109.166 207.681 110.19 208.91 110.19H255.403C256.632 110.19 257.656 109.166 257.656 107.937V6.75886H206.657Z" fill="#1A5A70"/>
<path d="M239.018 113.876H225.09V27.0354C225.09 23.1439 228.163 20.0717 232.054 20.0717C235.946 20.0717 239.018 23.1439 239.018 27.0354V113.876Z" fill="#B9C8E6"/>
<path d="M242.499 117.358H221.609V21.9151C221.609 19.0477 224.066 16.5899 226.934 16.5899H237.174C240.042 16.5899 242.499 19.0477 242.499 21.9151V117.358ZM228.777 110.395H235.741V23.5536H228.777V110.395Z" fill="#1A5A70"/>
<path d="M417.206 42.8061C423.54 42.8061 428.675 37.671 428.675 31.3365C428.675 25.0021 423.54 19.8669 417.206 19.8669C410.871 19.8669 405.736 25.0021 405.736 31.3365C405.736 37.671 410.871 42.8061 417.206 42.8061Z" fill="#F39F8C"/>
<path d="M417.206 46.2879C409.013 46.2879 402.254 39.5291 402.254 31.3365C402.254 23.144 409.013 16.3851 417.206 16.3851C425.398 16.3851 432.157 23.144 432.157 31.3365C431.952 39.5291 425.398 46.2879 417.206 46.2879ZM417.206 23.5536C412.905 23.5536 409.218 27.0354 409.218 31.5413C409.218 35.8424 412.7 39.5291 417.206 39.5291C421.712 39.5291 425.193 36.0472 425.193 31.5413C424.989 27.0354 421.507 23.5536 417.206 23.5536Z" fill="#1A5A70"/>
<path d="M417.206 78.4437C423.54 78.4437 428.675 73.3086 428.675 66.9741C428.675 60.6396 423.54 55.5045 417.206 55.5045C410.871 55.5045 405.736 60.6396 405.736 66.9741C405.736 73.3086 410.871 78.4437 417.206 78.4437Z" fill="#B9C8E6"/>
<path d="M417.206 81.7207C409.013 81.7207 402.254 74.9618 402.254 66.7693C402.254 58.5767 409.013 51.8179 417.206 51.8179C425.398 51.8179 432.157 58.5767 432.157 66.7693C432.157 74.9618 425.398 81.7207 417.206 81.7207ZM417.206 58.9864C412.905 58.9864 409.218 62.4682 409.218 66.9741C409.218 71.2752 412.7 74.9618 417.206 74.9618C421.712 74.9618 425.193 71.48 425.193 66.9741C424.989 62.4682 421.507 58.9864 417.206 58.9864Z" fill="#1A5A70"/>
<path d="M51.8179 20.891H27.6499C25.8065 20.891 24.168 19.2525 24.168 17.4092C24.168 15.5658 25.8065 13.9273 27.6499 13.9273H51.8179C53.6612 13.9273 55.2997 15.5658 55.2997 17.4092C55.2997 19.2525 53.866 20.891 51.8179 20.891Z" fill="#1A5A70"/>
<path d="M131.49 20.891H65.1307C63.2874 20.891 61.6489 19.2525 61.6489 17.4092C61.6489 15.5658 63.2874 13.9273 65.1307 13.9273H131.49C133.334 13.9273 134.972 15.5658 134.972 17.4092C134.972 19.2525 133.334 20.891 131.49 20.891Z" fill="#1A5A70"/>
<path d="M261.138 30.9269H248.029C246.391 30.9269 244.957 29.698 244.957 27.8547C244.957 26.0114 246.186 24.7825 248.029 24.7825H261.138C262.776 24.7825 264.21 26.0114 264.21 27.8547C264.21 29.698 262.776 30.9269 261.138 30.9269Z" fill="#1A5A70"/>
<path d="M261.138 52.4323H248.029C246.391 52.4323 244.957 51.2034 244.957 49.3601C244.957 47.5168 246.186 46.2879 248.029 46.2879H261.138C262.776 46.2879 264.21 47.5168 264.21 49.3601C264.21 51.2034 262.776 52.4323 261.138 52.4323Z" fill="#1A5A70"/>
<path d="M261.138 73.9378H248.029C246.391 73.9378 244.957 72.7089 244.957 70.8656C244.957 69.0222 246.186 67.7934 248.029 67.7934H261.138C262.776 67.7934 264.21 69.0222 264.21 70.8656C264.21 72.7089 262.776 73.9378 261.138 73.9378Z" fill="#1A5A70"/>
<path d="M261.138 95.2384H248.029C246.391 95.2384 244.957 94.0095 244.957 92.1662C244.957 90.3229 246.186 89.094 248.029 89.094H261.138C262.776 89.094 264.21 90.3229 264.21 92.1662C264.21 94.0095 262.776 95.2384 261.138 95.2384Z" fill="#1A5A70"/>
<path d="M412.495 139.888H401.025C399.182 139.888 397.544 138.249 397.544 136.406C397.544 134.563 399.182 132.924 401.025 132.924H412.495C414.338 132.924 415.977 134.563 415.977 136.406C415.977 138.249 414.338 139.888 412.495 139.888Z" fill="#1A5A70"/>
<path d="M383.616 139.888H337.533C335.69 139.888 334.051 138.249 334.051 136.406C334.051 134.563 335.69 132.924 337.533 132.924H383.616C385.46 132.924 387.098 134.563 387.098 136.406C387.098 138.249 385.664 139.888 383.616 139.888Z" fill="#1A5A70"/>
</svg>
