<svg width="358" height="245" viewBox="0 0 358 245" fill="none" xmlns="http://www.w3.org/2000/svg">
<path d="M33.384 186.434H16.4355V241.61H33.384V186.434Z" fill="#EEF3F4"/>
<path d="M341.658 186.434H324.71V241.61H341.658V186.434Z" fill="#EEF3F4"/>
<path d="M36.5851 245H13.2339V183.232H36.5851V245ZM19.6366 238.409H30.1824V189.635H19.6366V238.409Z" fill="#1A5A70"/>
<path d="M345.048 245H321.697V183.232H345.048V245ZM328.099 238.409H338.645V189.635H328.099V238.409Z" fill="#1A5A70"/>
<path d="M341.847 55.1768H16.2471C9.656 55.1768 4.19482 49.7156 4.19482 43.1245C4.19482 36.5334 9.656 31.0723 16.2471 31.0723H341.847C348.438 31.0723 353.899 36.5334 353.899 43.1245C353.899 49.7156 348.626 55.1768 341.847 55.1768Z" fill="#B9C8E6"/>
<path opacity="0.14" d="M341.847 46.3259H16.2473C11.1627 46.3259 6.83143 43.1245 5.13658 38.6049C4.57163 39.9231 4.3833 41.4296 4.3833 42.9362C4.3833 49.5273 9.8445 54.9885 16.4356 54.9885H342.035C348.626 54.9885 354.087 49.5273 354.087 42.9362C354.087 41.4296 353.711 39.9231 353.334 38.6049C351.263 43.1245 346.931 46.3259 341.847 46.3259Z" fill="black"/>
<path d="M341.847 210.538H16.2471C9.656 210.538 4.19482 205.077 4.19482 198.486C4.19482 191.895 9.656 186.434 16.2471 186.434H341.847C348.438 186.434 353.899 191.895 353.899 198.486C353.899 205.077 348.626 210.538 341.847 210.538Z" fill="#B9C8E6"/>
<path opacity="0.14" d="M341.847 201.687H16.2473C11.1627 201.687 6.83143 198.486 5.13658 193.966C4.57163 195.284 4.3833 196.791 4.3833 198.297C4.3833 204.889 9.8445 210.35 16.4356 210.35H342.035C348.626 210.35 354.087 204.889 354.087 198.297C354.087 196.791 353.711 195.284 353.334 193.966C351.263 198.486 346.931 201.687 341.847 201.687Z" fill="black"/>
<path d="M33.384 219.577H16.4355V225.98H33.384V219.577Z" fill="#1A5A70"/>
<path d="M341.846 58.3782H16.2468C7.77255 58.3782 0.993164 51.5988 0.993164 43.1245C0.993164 34.6503 7.77255 27.8708 16.2468 27.8708H341.846C350.321 27.8708 357.1 34.6503 357.1 43.1245C357.1 51.5988 350.321 58.3782 341.846 58.3782ZM16.2468 34.2736C11.3506 34.2736 7.39592 38.2283 7.39592 43.1245C7.39592 48.0207 11.3506 51.9754 16.2468 51.9754H341.846C346.743 51.9754 350.697 48.0207 350.697 43.1245C350.697 38.2283 346.743 34.2736 341.846 34.2736H16.2468Z" fill="#1A5A70"/>
<path d="M341.846 213.739H16.2468C7.77255 213.739 0.993164 206.96 0.993164 198.486C0.993164 190.012 7.77255 183.232 16.2468 183.232H341.846C350.321 183.232 357.1 190.012 357.1 198.486C357.1 206.96 350.321 213.739 341.846 213.739ZM16.2468 189.635C11.3506 189.635 7.39592 193.59 7.39592 198.486C7.39592 203.382 11.3506 207.337 16.2468 207.337H341.846C346.743 207.337 350.697 203.382 350.697 198.486C350.697 193.59 346.743 189.635 341.846 189.635H16.2468Z" fill="#1A5A70"/>
<path d="M71.2349 238.221C62.3841 238.221 55.228 231.065 55.228 222.214V19.2083C55.228 10.3574 62.3841 3.20137 71.2349 3.20137C80.0858 3.20137 87.2419 10.3574 87.2419 19.2083V222.402C87.2419 231.065 80.0858 238.221 71.2349 238.221Z" fill="#EEF3F4"/>
<path opacity="0.14" d="M71.2348 3.20137C69.7282 3.20137 68.41 3.38969 67.0918 3.76633C73.8712 5.64949 78.9558 11.8639 78.9558 19.2083V222.402C78.9558 229.746 73.8712 235.961 67.0918 237.844C68.41 238.221 69.7282 238.409 71.2348 238.409C80.0856 238.409 87.2417 231.253 87.2417 222.402V19.2083C87.2417 10.3574 80.0856 3.20137 71.2348 3.20137Z" fill="black"/>
<path d="M125.094 238.221C116.243 238.221 109.087 231.065 109.087 222.214V19.2083C109.087 10.3574 116.243 3.20137 125.094 3.20137C133.945 3.20137 141.101 10.3574 141.101 19.2083V222.402C141.101 231.065 133.945 238.221 125.094 238.221Z" fill="#EEF3F4"/>
<path opacity="0.14" d="M125.093 3.20137C123.586 3.20137 122.08 3.38969 120.762 3.76633C127.353 5.64949 132.249 11.8639 132.249 19.02V222.214C132.249 229.558 127.353 235.584 120.762 237.467C122.08 237.844 123.586 238.032 125.093 238.032C133.944 238.032 141.1 230.876 141.1 222.025V19.2083C141.1 10.3574 133.944 3.20137 125.093 3.20137Z" fill="black"/>
<path d="M179.14 238.221C170.289 238.221 163.133 231.065 163.133 222.214V19.2083C163.133 10.3574 170.289 3.20137 179.14 3.20137C187.991 3.20137 195.147 10.3574 195.147 19.2083V222.402C194.959 231.065 187.803 238.221 179.14 238.221Z" fill="#EEF3F4"/>
<path opacity="0.14" d="M179.141 3.20137C177.634 3.20137 176.316 3.38969 174.998 3.76633C181.777 5.64949 186.861 11.8639 186.861 19.2083V222.402C186.861 229.746 181.777 235.961 174.998 237.844C176.316 238.221 177.634 238.409 179.141 238.409C187.991 238.409 195.147 231.253 195.147 222.402V19.2083C194.959 10.3574 187.803 3.20137 179.141 3.20137Z" fill="black"/>
<path d="M232.999 238.221C224.148 238.221 216.992 231.065 216.992 222.214V19.2083C216.992 10.3574 224.148 3.20137 232.999 3.20137C241.85 3.20137 249.006 10.3574 249.006 19.2083V222.402C248.817 231.065 241.85 238.221 232.999 238.221Z" fill="#EEF3F4"/>
<path opacity="0.14" d="M232.999 3.20137C231.304 3.20137 229.798 3.38968 228.291 3.95463C234.882 6.02611 239.59 12.0523 239.59 19.2083V222.402C239.59 229.558 234.882 235.584 228.291 237.656C229.798 238.032 231.304 238.409 232.999 238.409C241.85 238.409 249.006 231.253 249.006 222.402V19.2083C248.818 10.3574 241.85 3.20137 232.999 3.20137Z" fill="black"/>
<path d="M286.858 238.221C278.007 238.221 270.851 231.065 270.851 222.214V19.2083C270.851 10.3574 278.007 3.20137 286.858 3.20137C295.708 3.20137 302.864 10.3574 302.864 19.2083V222.402C302.864 231.065 295.708 238.221 286.858 238.221Z" fill="#EEF3F4"/>
<path opacity="0.14" d="M286.857 3.20137C285.163 3.20137 283.279 3.57799 281.773 3.95463C287.987 6.02611 292.695 12.0522 292.695 19.02V222.214C292.695 229.181 288.176 235.208 281.773 237.279C283.279 237.844 285.163 238.032 286.857 238.032C295.708 238.032 302.864 230.876 302.864 222.025V19.2083C302.864 10.3574 295.708 3.20137 286.857 3.20137Z" fill="black"/>
<path d="M71.2356 241.422C60.6899 241.422 52.0273 232.759 52.0273 222.214V19.2083C52.0273 8.66256 60.6899 0 71.2356 0C81.7814 0 90.444 8.66256 90.444 19.2083V222.402C90.444 232.948 81.7814 241.422 71.2356 241.422ZM71.2356 6.59108C64.2679 6.59108 58.6184 12.2406 58.6184 19.2083V222.402C58.6184 229.37 64.2679 235.019 71.2356 235.019C78.2034 235.019 83.8529 229.37 83.8529 222.402V19.2083C84.0412 12.2406 78.2034 6.59108 71.2356 6.59108Z" fill="#1A5A70"/>
<path d="M125.094 241.422C114.548 241.422 105.886 232.759 105.886 222.214V19.2083C105.886 8.66256 114.548 0 125.094 0C135.64 0 144.302 8.66256 144.302 19.2083V222.402C144.302 232.948 135.828 241.422 125.094 241.422ZM125.094 6.59108C118.126 6.59108 112.477 12.2406 112.477 19.2083V222.402C112.477 229.37 118.126 235.019 125.094 235.019C132.062 235.019 137.711 229.37 137.711 222.402V19.2083C137.9 12.2406 132.25 6.59108 125.094 6.59108Z" fill="#1A5A70"/>
<path d="M179.14 241.422C168.595 241.422 159.932 232.759 159.932 222.214V19.2083C159.932 8.66256 168.595 0 179.14 0C189.686 0 198.349 8.66256 198.349 19.2083V222.402C198.16 232.948 189.686 241.422 179.14 241.422ZM179.14 6.59108C172.173 6.59108 166.523 12.2406 166.523 19.2083V222.402C166.523 229.37 172.173 235.019 179.14 235.019C186.108 235.019 191.758 229.37 191.758 222.402V19.2083C191.758 12.2406 186.108 6.59108 179.14 6.59108Z" fill="#1A5A70"/>
<path d="M232.999 241.422C222.454 241.422 213.791 232.759 213.791 222.214V19.2083C213.791 8.66256 222.454 0 232.999 0C243.545 0 252.208 8.66256 252.208 19.2083V222.402C252.208 232.948 243.545 241.422 232.999 241.422ZM232.999 6.59108C226.032 6.59108 220.382 12.2406 220.382 19.2083V222.402C220.382 229.37 226.032 235.019 232.999 235.019C239.967 235.019 245.617 229.37 245.617 222.402V19.2083C245.617 12.2406 239.967 6.59108 232.999 6.59108Z" fill="#1A5A70"/>
<path d="M286.858 241.422C276.312 241.422 267.65 232.759 267.65 222.214V19.2083C267.65 8.66256 276.312 0 286.858 0C297.404 0 306.066 8.66256 306.066 19.2083V222.402C306.066 232.948 297.404 241.422 286.858 241.422ZM286.858 6.59108C279.89 6.59108 274.241 12.2406 274.241 19.2083V222.402C274.241 229.37 279.89 235.019 286.858 235.019C293.826 235.019 299.475 229.37 299.475 222.402V19.2083C299.664 12.2406 293.826 6.59108 286.858 6.59108Z" fill="#1A5A70"/>
<path d="M25.0981 154.043C18.8837 154.043 13.6108 159.128 13.6108 165.53V184.362H36.3971V165.53C36.5855 159.128 31.5009 154.043 25.0981 154.043Z" fill="#EEF3F4"/>
<path d="M39.7866 187.563H10.4092V165.53C10.4092 157.433 17.0002 150.842 25.0979 150.842C33.1955 150.842 39.7866 157.433 39.7866 165.53V187.563V187.563ZM17.0003 181.161H33.3838V165.53C33.3838 161.011 29.8058 157.433 25.2862 157.433C20.7666 157.433 17.1886 161.011 17.1886 165.53V181.161H17.0003Z" fill="#1A5A70"/>
<path d="M24.9094 177.018C23.2145 177.018 21.708 175.511 21.708 173.816V165.154C21.708 163.459 23.2145 161.952 24.9094 161.952C26.6042 161.952 28.1108 163.459 28.1108 165.154V173.816C28.1108 175.699 26.6042 177.018 24.9094 177.018Z" fill="#1A5A70"/>
<path d="M333.184 154.043C326.969 154.043 321.697 159.128 321.697 165.53V184.362H344.483V165.53C344.671 159.128 339.587 154.043 333.184 154.043Z" fill="#EEF3F4"/>
<path d="M347.873 187.563H318.495V165.53C318.495 157.433 325.086 150.842 333.184 150.842C341.282 150.842 347.873 157.433 347.873 165.53V187.563ZM325.086 181.161H341.47V165.53C341.47 161.011 337.892 157.433 333.372 157.433C328.853 157.433 325.275 161.011 325.275 165.53V181.161H325.086Z" fill="#1A5A70"/>
<path d="M332.996 177.018C331.301 177.018 329.794 175.511 329.794 173.816V165.154C329.794 163.459 331.301 161.952 332.996 161.952C334.69 161.952 336.197 163.459 336.197 165.154V173.816C336.197 175.699 334.69 177.018 332.996 177.018Z" fill="#1A5A70"/>
<path d="M341.658 218.071H324.709V224.473H341.658V218.071Z" fill="#1A5A70"/>
<path d="M64.8324 56.8716C63.8908 56.8716 62.9492 56.1184 62.9492 54.9885V39.5465C62.9492 38.6049 63.7025 37.6633 64.8324 37.6633C65.9623 37.6633 66.7156 38.4166 66.7156 39.5465V54.9885C66.7156 56.1184 65.774 56.8716 64.8324 56.8716Z" fill="#1A5A70"/>
<path d="M64.8324 114.12C63.8908 114.12 62.9492 113.367 62.9492 112.237V64.216C62.9492 63.2744 63.7025 62.3328 64.8324 62.3328C65.9623 62.3328 66.7156 63.0861 66.7156 64.216V112.237C66.7156 113.367 65.774 114.12 64.8324 114.12Z" fill="#1A5A70"/>
<path d="M334.879 196.414H313.975C312.657 196.414 311.716 195.473 311.716 194.154C311.716 192.836 312.657 191.895 313.975 191.895H334.879C336.197 191.895 337.138 192.836 337.138 194.154C337.138 195.473 336.008 196.414 334.879 196.414Z" fill="#1A5A70"/>
<path d="M116.808 205.454C115.866 205.454 114.925 204.7 114.925 203.57V171.557C114.925 170.615 115.678 169.673 116.808 169.673C117.938 169.673 118.691 170.427 118.691 171.557V203.57C118.691 204.512 117.75 205.454 116.808 205.454Z" fill="#1A5A70"/>
<path d="M171.608 101.503C170.667 101.503 169.725 100.749 169.725 99.6195V84.5542C169.725 83.6126 170.478 82.671 171.608 82.671C172.55 82.671 173.491 83.4243 173.491 84.5542V99.6195C173.491 100.749 172.738 101.503 171.608 101.503Z" fill="#1A5A70"/>
<path d="M171.608 139.354C170.667 139.354 169.725 138.601 169.725 137.471V112.237C169.725 111.295 170.478 110.354 171.608 110.354C172.55 110.354 173.491 111.107 173.491 112.237V137.471C173.491 138.601 172.738 139.354 171.608 139.354Z" fill="#1A5A70"/>
<path d="M225.279 181.161C224.337 181.161 223.396 180.407 223.396 179.277V160.446C223.396 159.504 224.149 158.563 225.279 158.563C226.22 158.563 227.162 159.316 227.162 160.446V179.277C227.162 180.219 226.409 181.161 225.279 181.161Z" fill="#1A5A70"/>
<path d="M278.384 220.895C277.442 220.895 276.5 220.142 276.5 219.012V206.583C276.5 205.642 277.254 204.7 278.384 204.7C279.514 204.7 280.267 205.453 280.267 206.583V219.012C280.267 219.954 279.325 220.895 278.384 220.895Z" fill="#1A5A70"/>
<path d="M278.384 198.297C277.442 198.297 276.5 197.544 276.5 196.414V156.114C276.5 155.173 277.254 154.231 278.384 154.231C279.514 154.231 280.267 154.985 280.267 156.114V196.603C280.267 197.544 279.325 198.297 278.384 198.297Z" fill="#1A5A70"/>
</svg>
