<svg width="148" height="159" viewBox="0 0 148 159" fill="none" xmlns="http://www.w3.org/2000/svg">
<path d="M105.756 52.0005H82.2793C80.9628 52.0005 79.939 50.7571 79.939 49.2944V42.2001C79.939 40.6642 80.9628 39.494 82.2793 39.494H105.756C107.073 39.494 108.097 40.7374 108.097 42.2001V49.2944C108.097 50.7571 107.073 52.0005 105.756 52.0005ZM84.6198 46.5152H103.416V44.9062H84.6198V46.5152Z" fill="black"/>
<path d="M130.769 44.0285H2.34039C1.02393 44.0285 0 43.0046 0 41.6881V15.5051C0 6.94803 6.94801 0 15.5782 0H117.604C126.161 0 133.109 6.94803 133.109 15.5051V41.6881C133.109 43.0046 132.086 44.0285 130.769 44.0285ZM4.68075 39.4209H128.429V15.5782C128.429 9.58095 123.529 4.68077 117.531 4.68077H15.5051C9.50783 4.68077 4.60763 9.58095 4.60763 15.5782V39.4209H4.68075Z" fill="black"/>
<path d="M36.7879 132.744H2.34039C1.02393 132.744 0 131.72 0 130.403V41.7613C0 40.4448 1.02393 39.4209 2.34039 39.4209H36.7879C38.1044 39.4209 39.1283 40.4448 39.1283 41.7613V130.477C39.1283 131.72 38.1044 132.744 36.7879 132.744ZM4.68075 128.063H34.4476V44.0285H4.68075V128.063V128.063Z" fill="black"/>
<path d="M130.769 159H2.34039C1.02393 159 0 157.976 0 156.66V130.477C0 129.16 1.02393 128.136 2.34039 128.136H130.769C132.086 128.136 133.109 129.16 133.109 130.477V156.66C133.109 157.903 132.086 159 130.769 159ZM4.68075 154.319H128.429V132.817H4.68075V154.319V154.319Z" fill="black"/>
<path d="M100.271 132.159H87.7645C87.3257 132.159 86.96 132.086 86.5943 131.866L85.5704 131.281C82.0598 129.306 79.6463 125.869 78.9149 121.846L74.5998 98.9545C74.4535 98.2963 74.673 97.5649 75.1118 97.0529C75.5506 96.541 76.2089 96.1753 76.9402 96.1753H111.168C111.9 96.1753 112.558 96.4679 112.997 97.0529C113.436 97.5649 113.655 98.2963 113.509 98.9545L109.194 121.846C108.462 125.796 106.049 129.233 102.538 131.208L101.514 131.793C101.149 132.086 100.71 132.159 100.271 132.159ZM88.4227 127.478H99.6859L100.125 127.185C102.465 125.869 104.074 123.602 104.513 120.969L108.316 100.856H79.7194L83.5226 120.969C84.0345 123.602 85.6436 125.869 87.9108 127.185L88.4227 127.478Z" fill="black"/>
<path d="M106.853 125.723C106.634 125.723 106.414 125.723 106.195 125.723C104.879 125.649 103.928 124.626 103.928 123.309C104.001 121.993 105.098 121.042 106.341 121.042C109.559 121.188 112.119 120.31 114.094 118.409C118.555 114.24 118.848 106.634 118.848 106.561C118.921 105.683 118.628 105.537 118.482 105.39C117.239 104.367 113.216 104.805 110.803 105.464C109.559 105.829 108.243 105.098 107.95 103.855C107.585 102.611 108.316 101.295 109.559 101.002C110.876 100.637 117.751 98.8813 121.408 101.807C122.431 102.611 123.602 104.147 123.529 106.78C123.529 107.146 123.163 116.361 117.312 121.919C114.533 124.406 111.022 125.723 106.853 125.723Z" fill="black"/>
<path d="M114.46 66.9204H73.6491C72.7715 66.9204 71.9669 66.3353 71.6012 65.4576C71.1624 64.58 71.2356 63.4829 71.7476 62.6784L80.3777 47.6853C80.8165 46.954 81.5478 46.5151 82.2792 46.5151H105.756C106.561 46.5151 107.292 46.954 107.658 47.6853L116.288 62.6784C116.8 63.4829 116.8 64.58 116.434 65.4576C116.069 66.3353 115.337 66.9204 114.46 66.9204ZM78.0373 61.4351H109.998L104.513 51.9273H83.5226L78.0373 61.4351Z" fill="black"/>
<path d="M104.074 79.5731H96.6141C95.2977 79.5731 94.2737 78.3298 94.2737 76.8671V64.2144C94.2737 62.6785 95.2977 61.5083 96.6141 61.5083H104.074C105.391 61.5083 106.414 62.7516 106.414 64.2144V76.8671C106.414 78.3298 105.391 79.5731 104.074 79.5731ZM98.8814 74.0879H101.734V66.9204H98.8814V74.0879Z" fill="black"/>
<path d="M138.01 65.7501C137.937 65.7501 137.863 65.7501 137.79 65.7501L111.827 62.8247C111.168 62.7515 110.51 62.3127 110.144 61.6545L106.488 55.2916C106.049 54.487 105.976 53.4631 106.341 52.5855C106.707 51.7078 107.438 51.1227 108.243 51.0496L137.863 47.6853C137.936 47.6853 138.01 47.6853 138.156 47.6853C139.765 47.6853 141.228 48.1241 142.544 48.7824C145.323 50.2451 147.079 53.3169 147.079 56.7543C147.079 60.1917 145.323 63.1903 142.544 64.7262C141.155 65.3845 139.692 65.7501 138.01 65.7501C138.01 65.7501 138.083 65.7501 138.01 65.7501ZM113.362 57.4857L138.083 60.2649C138.96 60.2649 139.765 60.0455 140.496 59.6798C141.593 59.0947 142.325 57.9976 142.325 56.6812C142.325 55.4378 141.667 54.2676 140.496 53.6825C139.838 53.3168 139.034 53.0974 138.083 53.0974L112.485 56.0229L113.362 57.4857Z" fill="black"/>
<path d="M22.6726 33.058C20.9904 33.058 19.6008 31.6684 19.6008 29.9862V13.9692C19.6008 12.2871 20.9904 10.8975 22.6726 10.8975C24.3547 10.8975 25.7444 12.2871 25.7444 13.9692V29.9862C25.7444 31.7415 24.3547 33.058 22.6726 33.058Z" fill="#FCB756"/>
<path d="M36.788 33.058C35.1059 33.058 33.7163 31.6684 33.7163 29.9862V13.9692C33.7163 12.2871 35.1059 10.8975 36.788 10.8975C38.4702 10.8975 39.8598 12.2871 39.8598 13.9692V29.9862C39.8598 31.7415 38.5433 33.058 36.788 33.058Z" fill="#FCB756"/>
<path d="M50.9766 33.058C49.2944 33.058 47.9048 31.6684 47.9048 29.9862V13.9692C47.9048 12.2871 49.2944 10.8975 50.9766 10.8975C52.6587 10.8975 54.0483 12.2871 54.0483 13.9692V29.9862C54.0483 31.7415 52.6587 33.058 50.9766 33.058Z" fill="#FCB756"/>
<path d="M65.1652 33.058C63.483 33.058 62.0934 31.6684 62.0934 29.9862V13.9692C62.0934 12.2871 63.483 10.8975 65.1652 10.8975C66.8473 10.8975 68.2369 12.2871 68.2369 13.9692V29.9862C68.1638 31.7415 66.8473 33.058 65.1652 33.058Z" fill="#FCB756"/>
<path d="M26.449 69.2458C27.3401 65.472 25.0032 61.6904 21.2295 60.7993C17.4557 59.9082 13.6741 62.2451 12.783 66.0188C11.8919 69.7926 14.2288 73.5742 18.0026 74.4653C21.7763 75.3564 25.5579 73.0195 26.449 69.2458Z" fill="#6BC9CD"/>
<path d="M19.6007 94.42C23.4784 94.42 26.6219 91.2765 26.6219 87.3988C26.6219 83.5212 23.4784 80.3777 19.6007 80.3777C15.7231 80.3777 12.5796 83.5212 12.5796 87.3988C12.5796 91.2765 15.7231 94.42 19.6007 94.42Z" fill="#6BC9CD"/>
</svg>
