<svg width="120" height="156" viewBox="0 0 120 156" fill="none" xmlns="http://www.w3.org/2000/svg">
<path d="M117.951 134.254H2.11216C0.924077 134.254 0 133.33 0 132.142V33.1345C0 31.9464 0.924077 31.0223 2.11216 31.0223H117.885C119.073 31.0223 119.997 31.9464 119.997 33.1345V132.142C120.063 133.33 119.073 134.254 117.951 134.254ZM4.22431 130.03H115.839V35.2466H4.22431V130.03Z" fill="black"/>
<path d="M104.948 44.2893H15.1812V120.987H104.948V44.2893Z" fill="#FCB756"/>
<path d="M117.951 155.178H2.11216C0.924077 155.178 0 154.253 0 153.065V132.142C0 130.954 0.924077 130.03 2.11216 130.03H117.885C119.073 130.03 119.997 130.954 119.997 132.142V153.065C120.063 154.187 119.073 155.178 117.951 155.178ZM4.22431 150.953H115.839V134.254H4.22431V150.953Z" fill="black"/>
<path d="M117.951 35.2467H2.11216C0.924077 35.2467 0 34.3226 0 33.1345V9.37277C0 8.18469 0.924077 7.26062 2.11216 7.26062H117.885C119.073 7.26062 119.997 8.18469 119.997 9.37277V33.1345C120.063 34.3226 119.073 35.2467 117.951 35.2467ZM4.22431 31.0224H115.839V11.4849H4.22431V31.0224Z" fill="black"/>
<path d="M46.4015 11.4848H13.5311C12.343 11.4848 11.4189 10.5608 11.4189 9.37269V2.11215C11.4189 0.924066 12.343 0 13.5311 0H46.4015C47.5896 0 48.5137 0.924066 48.5137 2.11215V9.37269C48.5137 10.5608 47.5896 11.4848 46.4015 11.4848ZM15.7093 7.32654H44.3554V4.29032H15.7093V7.32654Z" fill="black"/>
<path d="M76.4996 17.6893H43.6292V24.9499H76.4996V17.6893Z" fill="#6BC9CD"/>
<path d="M105.41 11.4848H72.5394C71.3513 11.4848 70.4272 10.5608 70.4272 9.37269V2.11215C70.4272 0.924066 71.3513 0 72.5394 0H105.41C106.598 0 107.522 0.924066 107.522 2.11215V9.37269C107.522 10.5608 106.598 11.4848 105.41 11.4848ZM74.7176 7.32654H103.298V4.29032H74.6515V7.32654H74.7176Z" fill="black"/>
<path d="M92.4729 53.9259H26.402V59.1403H92.4729V53.9259Z" fill="white"/>
<path d="M15.1812 20.9895C15.1812 22.4416 13.9931 23.6957 12.475 23.6957C11.0229 23.6957 9.7688 22.5076 9.7688 20.9895C9.7688 19.5374 10.9569 18.2833 12.475 18.2833C13.9271 18.2833 15.1812 19.5374 15.1812 20.9895Z" fill="black"/>
<path d="M25.7419 20.9895C25.7419 22.4416 24.5538 23.6957 23.0357 23.6957C21.5836 23.6957 20.3295 22.5076 20.3295 20.9895C20.3295 19.5374 21.5176 18.2833 23.0357 18.2833C24.4878 18.2833 25.7419 19.5374 25.7419 20.9895Z" fill="black"/>
<path d="M36.3027 20.9895C36.3027 22.4416 35.1146 23.6957 33.5965 23.6957C32.1444 23.6957 30.8903 22.5076 30.8903 20.9895C30.8903 19.5374 32.0784 18.2833 33.5965 18.2833C35.0486 18.2833 36.3027 19.5374 36.3027 20.9895Z" fill="black"/>
<path d="M88.5785 20.9895C88.5785 22.4416 87.3904 23.6957 85.8723 23.6957C84.4202 23.6957 83.1661 22.5076 83.1661 20.9895C83.1661 19.5374 84.3542 18.2833 85.8723 18.2833C87.3904 18.2833 88.5785 19.5374 88.5785 20.9895Z" fill="black"/>
<path d="M99.1393 20.9895C99.1393 22.4416 97.9512 23.6957 96.4331 23.6957C94.981 23.6957 93.7269 22.5076 93.7269 20.9895C93.7269 19.5374 94.915 18.2833 96.4331 18.2833C97.9512 18.2833 99.1393 19.5374 99.1393 20.9895Z" fill="black"/>
<path d="M109.7 20.9895C109.7 22.4416 108.512 23.6957 106.994 23.6957C105.476 23.6957 104.288 22.5076 104.288 20.9895C104.288 19.5374 105.476 18.2833 106.994 18.2833C108.512 18.2833 109.7 19.5374 109.7 20.9895Z" fill="black"/>
<path d="M42.1772 110.294C41.7812 110.294 41.3191 110.162 40.9891 109.832C40.3291 109.172 40.3291 108.116 40.9231 107.456C43.4973 104.816 44.4874 101.318 43.7613 97.6873C43.2993 95.3111 41.9792 93.529 40.5931 91.5488C39.801 90.4268 39.009 89.3047 38.2829 87.9846C36.7648 85.2124 36.2367 82.2422 36.8308 79.3379C37.4248 76.3677 39.207 73.3975 41.6492 71.2193C42.3752 70.6253 43.4313 70.6913 44.0253 71.3513C44.6194 72.0774 44.5534 73.1335 43.8933 73.7275C41.9792 75.3777 40.5931 77.6878 40.131 79.932C39.735 82.0441 40.065 84.2223 41.2531 86.2685C41.9132 87.3905 42.6392 88.3806 43.3653 89.5027C44.8834 91.6148 46.4675 93.859 47.1275 96.8952C48.1176 101.582 46.7975 106.268 43.4313 109.7C43.0352 110.162 42.5732 110.294 42.1772 110.294Z" fill="black"/>
<path d="M59.6023 110.294C59.2063 110.294 58.7443 110.162 58.4143 109.832C57.7542 109.172 57.7542 108.116 58.3483 107.456C60.9225 104.816 61.9125 101.318 61.1865 97.6873C60.7244 95.3111 59.4043 93.529 58.0182 91.5488C57.2262 90.4268 56.4341 89.3047 55.7081 87.9846C54.19 85.2124 53.6619 82.2422 54.256 79.3379C54.85 76.3017 56.6321 73.3975 59.0743 71.2193C59.8004 70.6253 60.8564 70.6913 61.4505 71.3513C62.0445 72.0774 61.9785 73.1335 61.3185 73.7275C59.4043 75.3777 58.0182 77.6878 57.5562 79.932C57.1602 82.0441 57.4902 84.2223 58.6783 86.2685C59.3383 87.3905 60.0644 88.3806 60.7904 89.5027C62.3085 91.6148 63.8927 93.859 64.5527 96.8952C65.5428 101.582 64.2227 106.268 60.8564 109.7C60.5264 110.162 60.0644 110.294 59.6023 110.294Z" fill="black"/>
<path d="M77.0937 110.294C76.6976 110.294 76.2356 110.162 75.9056 109.832C75.2455 109.172 75.2456 108.116 75.8396 107.456C78.4138 104.816 79.4039 101.318 78.6778 97.6873C78.2158 95.3111 76.8957 93.529 75.5096 91.5488C74.7175 90.4268 73.9255 89.3047 73.1994 87.9846C71.6813 85.2124 71.1532 82.2422 71.7473 79.3379C72.3413 76.3677 74.1235 73.3975 76.5656 71.2193C77.2917 70.6253 78.3478 70.6913 78.9418 71.3513C79.5358 72.0774 79.4699 73.1335 78.8098 73.7275C76.8957 75.3777 75.5096 77.6878 75.0475 79.932C74.6515 82.0441 74.9815 84.2223 76.1696 86.2685C76.8297 87.3905 77.5557 88.3806 78.2817 89.5027C79.7999 91.6148 81.384 93.859 82.044 96.8952C83.0341 101.582 81.714 106.268 78.3478 109.7C77.9517 110.162 77.4897 110.294 77.0937 110.294Z" fill="black"/>
</svg>
