<svg width="117" height="152" viewBox="0 0 117 152" fill="none" xmlns="http://www.w3.org/2000/svg">
<path d="M69.2875 110.756H47.0618V141.931H69.2875V110.756Z" fill="#B9C8E6"/>
<path opacity="0.27" d="M69.213 110.756H63.6938V141.931H69.213V110.756Z" fill="black"/>
<path d="M70.7047 143.423H45.5702V109.339H70.7047V143.423ZM48.4789 140.514H67.7214V112.247H48.4789V140.514Z" fill="#1A5A70"/>
<path d="M58.1747 114.783C89.4387 114.783 114.783 89.4387 114.783 58.1747C114.783 26.9107 89.4387 1.56622 58.1747 1.56622C26.9108 1.56622 1.56628 26.9107 1.56628 58.1747C1.56628 89.4387 26.9108 114.783 58.1747 114.783Z" fill="#EEF3F4"/>
<path d="M52.3572 46.8381C51.5368 46.6889 51.0893 45.7939 51.4623 45.0481C53.4014 41.0206 57.2797 29.2365 41.9156 21.5545C23.1953 12.157 69.4367 4.84793 70.8538 14.5437C72.3455 24.1649 68.84 44.0785 63.5447 46.3906C59.8901 48.106 54.893 47.4348 52.3572 46.8381Z" fill="#EE6F79"/>
<path d="M45.4955 57.5034C44.8989 58.1001 43.9293 58.0255 43.4818 57.3542C40.946 53.6997 32.6672 44.4514 18.4219 53.8488C0.969504 65.4092 17.7507 21.7036 26.8498 25.2836C35.9489 28.8635 51.3876 41.841 50.7909 47.5839C50.3434 51.6113 47.211 55.5642 45.4955 57.5034Z" fill="#EE6F79"/>
<path d="M51.2384 68.7654C51.4622 69.5859 50.9401 70.4063 50.1197 70.4809C45.6447 70.8538 33.5624 73.3896 34.5319 90.4691C35.7998 111.352 6.33951 75.0304 13.947 68.9146C21.5544 62.7988 40.5731 55.9372 45.1972 59.2934C48.5535 61.6801 50.418 66.3042 51.2384 68.7654Z" fill="#EE6F79"/>
<path d="M63.9175 69.4367C64.7379 69.5859 65.1855 70.4809 64.8126 71.2267C62.8734 75.2542 58.9951 87.0383 74.3591 94.7203C93.0795 104.118 46.8381 111.427 45.421 101.731C44.0039 92.0353 47.4347 72.1963 52.7301 69.8842C56.3847 68.1688 61.3817 68.9146 63.9175 69.4367Z" fill="#EE6F79"/>
<path d="M70.7792 58.8459C71.3759 58.2493 72.3454 58.3238 72.7929 58.9951C75.3287 62.6497 83.6074 71.898 97.8528 62.5005C115.305 50.9401 98.5241 94.6457 89.4249 91.0658C80.3258 87.4858 64.8872 74.5083 65.4838 68.7654C65.9313 64.6634 69.0638 60.7105 70.7792 58.8459Z" fill="#EE6F79"/>
<path d="M65.0362 47.5093C64.8125 46.6889 65.3346 45.8685 66.155 45.7939C70.6299 45.421 82.7124 42.8852 81.7428 25.8057C80.4749 4.92247 109.935 41.2444 102.328 47.3602C94.7202 53.476 75.7017 60.3376 71.0775 56.9813C67.7213 54.5947 65.8566 49.9705 65.0362 47.5093Z" fill="#EE6F79"/>
<path d="M57.9509 48.6281C55.7134 48.6281 53.6251 48.2552 52.1334 47.9568C51.3876 47.8077 50.7909 47.3602 50.4926 46.6889C50.1942 46.0177 50.1942 45.2719 50.4926 44.6006C52.5063 40.3494 55.6388 29.7586 41.4681 22.6732C37.5897 20.7341 35.8744 18.5712 36.471 16.3337C37.8135 11.1129 51.9096 8.50247 60.9342 9.02455C67.7212 9.39746 71.5996 11.262 72.0471 14.4691C73.5387 24.3886 70.1079 44.8989 64.0667 47.5839C62.1276 48.3298 59.9646 48.6281 57.9509 48.6281ZM58.6221 11.1875C49.5976 11.1875 39.4543 13.947 38.7085 16.8558C38.4102 17.8999 39.8272 19.2424 42.5122 20.5849C58.9205 28.789 54.3709 41.7665 52.5809 45.5702C52.5809 45.6448 52.5809 45.6448 52.5809 45.7194C52.5809 45.7939 52.6555 45.7939 52.6555 45.7939C55.1167 46.316 59.7409 46.9873 63.1717 45.421C67.6466 43.4073 71.2266 24.1649 69.8096 14.7674C69.5112 12.9029 66.0804 11.5604 60.8596 11.262C60.1138 11.1875 59.368 11.1875 58.6221 11.1875Z" fill="#1A5A70"/>
<path d="M44.526 59.0697C44.4514 59.0697 44.4515 59.0697 44.3769 59.0697C43.6311 58.9951 42.9598 58.6222 42.5123 58.0255C39.8273 54.1472 32.2199 46.0923 19.0187 54.8185C15.3641 57.2051 12.6792 57.5781 11.0384 55.9372C7.23464 52.1335 12.0079 38.7085 16.9303 31.1011C20.6595 25.4328 24.1649 23.0462 27.2228 24.2395C36.5457 27.8941 52.581 41.0952 51.9098 47.7331C51.4623 52.1335 48.2552 56.2355 46.3906 58.3238C45.8685 58.7713 45.1973 59.0697 44.526 59.0697ZM30.2061 48.6281C38.0374 48.6281 42.8106 54.371 44.4515 56.6831C44.4515 56.7576 44.5261 56.7576 44.6007 56.7576C44.6753 56.7576 44.6752 56.7576 44.7498 56.6831C46.4652 54.8185 49.2993 51.1639 49.7468 47.4348C50.2689 42.5869 35.3524 29.8332 26.477 26.3278C24.687 25.6566 21.7783 27.9686 18.9441 32.369C13.7233 40.3494 10.4417 52.0589 12.7537 54.371C13.4996 55.1168 15.3641 54.5947 17.9 52.9539C22.5241 49.7468 26.7007 48.6281 30.2061 48.6281Z" fill="#1A5A70"/>
<path d="M31.6977 98.0019C26.4024 98.0019 17.9745 87.9332 14.0962 80.3258C11.0383 74.2845 10.74 69.9588 13.2758 67.945C21.107 61.68 40.5731 54.4455 45.9431 58.3238C49.523 60.9342 51.4622 65.7821 52.3572 68.3925C52.5809 69.1383 52.5064 69.8842 52.0589 70.4808C51.6114 71.0775 50.9402 71.525 50.1943 71.525C45.4956 71.8979 34.7557 74.5083 35.7252 90.3199C36.0236 94.6457 34.9794 97.1815 32.6674 97.7782C32.369 97.9273 32.0707 98.0019 31.6977 98.0019ZM41.4681 59.4425C34.681 59.4425 20.8832 64.8125 14.6928 69.735C13.2011 70.9283 13.7232 74.5829 16.1099 79.2816C20.4357 87.7841 28.8636 96.5103 32.0707 95.6153C33.1148 95.3169 33.5624 93.4524 33.4132 90.4691C32.2944 72.1217 45.8685 69.5858 50.0451 69.2875C50.1197 69.2875 50.1198 69.2875 50.1943 69.2129C50.1943 69.1383 50.1943 69.1383 50.1943 69.0638C49.4485 66.6771 47.6585 62.3513 44.6752 60.1138C43.9294 59.6663 42.8852 59.4425 41.4681 59.4425Z" fill="#1A5A70"/>
<path d="M57.578 107.399C56.8322 107.399 56.0118 107.399 55.3406 107.325C48.5535 106.952 44.6753 105.087 44.2278 101.88C42.7361 91.9607 46.1669 71.4504 52.2081 68.7654C56.2356 66.9754 61.3818 67.7213 64.1414 68.2434C64.8872 68.3925 65.4838 68.84 65.7822 69.5112C66.0805 70.1825 66.0805 70.9284 65.7822 71.5996C63.7684 75.8508 60.636 86.4416 74.8068 93.527C78.6851 95.4661 80.4005 97.629 79.8038 99.8665C78.5359 104.864 66.528 107.399 57.578 107.399ZM58.3239 69.9588C56.5339 69.9588 54.7439 70.1825 53.1031 70.9283C48.6281 72.9421 45.0482 92.1845 46.4653 101.582C46.7636 103.446 50.1944 104.789 55.4152 105.087C64.8872 105.609 76.6713 102.626 77.5663 99.4936C77.8646 98.4494 76.4476 97.1069 73.7626 95.7644C57.3543 87.5603 61.9039 74.5829 63.6939 70.7792C63.6939 70.7046 63.6939 70.7046 63.6939 70.63C63.6939 70.5554 63.6193 70.5554 63.6193 70.5554C62.3514 70.2571 60.4122 69.9588 58.3239 69.9588Z" fill="#1A5A70"/>
<path d="M90.6183 92.4082C90.0962 92.4082 89.5742 92.3337 89.0521 92.1099C79.7292 88.4554 63.6939 75.2542 64.3651 68.6163C64.8126 64.2159 68.0196 60.1138 69.8842 58.0255C70.4063 57.5034 71.0776 57.2051 71.8234 57.2051C72.5693 57.2797 73.2405 57.6526 73.688 58.2493C76.373 62.1276 83.9805 70.1825 97.1816 61.4563C100.836 59.0697 103.521 58.6967 105.162 60.3376C108.966 64.1413 104.192 77.5662 99.2699 85.1737C96.2866 89.947 93.3033 92.4082 90.6183 92.4082ZM71.7488 59.5172C71.6742 59.5172 71.6742 59.5172 71.6742 59.5917C69.9588 61.4563 67.1247 65.1109 66.6772 68.84C66.1551 73.6879 81.0717 86.4416 89.947 89.947C91.737 90.6182 94.6457 88.3062 97.4799 83.9058C102.701 75.9254 105.982 64.2159 103.67 61.9038C102.924 61.158 101.06 61.6801 98.5241 63.3209C93.7508 66.4534 89.6487 67.6467 86.0688 67.6467C78.2376 67.6467 73.4643 61.9038 71.8234 59.5917C71.8234 59.5917 71.8234 59.5172 71.7488 59.5172Z" fill="#1A5A70"/>
<path d="M74.8813 59.0696C72.9422 59.0696 71.3759 58.7713 70.3318 57.9509C66.7518 55.3405 64.8126 50.4926 63.9176 47.8822C63.6938 47.1363 63.7684 46.3905 64.2159 45.7939C64.6634 45.1972 65.3347 44.7497 66.0805 44.7497C70.7792 44.3768 81.5192 41.7664 80.5496 25.9548C80.2513 21.629 81.2954 19.0932 83.6075 18.4965C88.8283 17.0795 98.0766 27.9686 102.179 36.0235C105.237 42.0647 105.535 46.3905 102.999 48.4043C96.6595 53.4013 82.8617 59.0696 74.8813 59.0696ZM66.1551 47.211C66.9009 49.5976 68.6909 53.9234 71.6742 56.1609C75.6271 59.0696 94.1237 52.5064 101.582 46.6143C103.074 45.421 102.552 41.7664 100.165 37.0677C95.8391 28.5652 87.4113 19.839 84.2042 20.734C83.16 21.0324 82.7125 22.8969 82.8617 25.8802C83.9804 44.2276 70.4064 46.7635 66.2297 47.0618C66.1551 47.0618 66.1551 47.0618 66.0805 47.1363C66.1551 47.0618 66.0805 47.1364 66.1551 47.211Z" fill="#1A5A70"/>
<path d="M58.1747 78.7596C69.5434 78.7596 78.7596 69.5434 78.7596 58.1747C78.7596 46.806 69.5434 37.5898 58.1747 37.5898C46.806 37.5898 37.5898 46.806 37.5898 58.1747C37.5898 69.5434 46.806 78.7596 58.1747 78.7596Z" fill="#B9C8E6"/>
<path opacity="0.27" d="M71.3758 42.2885C74.3592 45.8684 76.1492 50.4926 76.1492 55.4896C76.1492 66.9008 66.9009 76.0746 55.5643 76.0746C50.5672 76.0746 45.9431 74.2845 42.3632 71.3012C46.1669 75.8508 51.8352 78.685 58.1747 78.685C69.5859 78.685 78.7596 69.4366 78.7596 58.1C78.7596 51.7605 75.8508 46.0922 71.3758 42.2885Z" fill="black"/>
<path d="M58.1747 79.9529C46.1668 79.9529 36.3965 70.1826 36.3965 58.1747C36.3965 46.1669 46.1668 36.3965 58.1747 36.3965C70.1825 36.3965 79.9528 46.1669 79.9528 58.1747C79.8783 70.1826 70.1079 79.9529 58.1747 79.9529ZM58.1747 38.7085C47.4347 38.7085 38.7085 47.4348 38.7085 58.1747C38.7085 68.9146 47.4347 77.6408 58.1747 77.6408C68.9146 77.6408 77.6408 68.9146 77.6408 58.1747C77.6408 47.4348 68.9146 38.7085 58.1747 38.7085Z" fill="#1A5A70"/>
<path d="M58.1747 67.7959C63.4883 67.7959 67.7959 63.4883 67.7959 58.1747C67.7959 52.861 63.4883 48.5535 58.1747 48.5535C52.861 48.5535 48.5535 52.861 48.5535 58.1747C48.5535 63.4883 52.861 67.7959 58.1747 67.7959Z" fill="#EEF3F4"/>
<path opacity="0.27" d="M63.47 50.1197C64.4396 51.6113 65.0362 53.4759 65.0362 55.4151C65.0362 60.7105 60.7105 65.0363 55.4151 65.0363C53.4759 65.0363 51.6113 64.4396 50.1196 63.4701C51.835 66.0805 54.8184 67.7959 58.1746 67.7959C63.47 67.7959 67.7958 63.4701 67.7958 58.1747C67.7958 54.8185 66.0804 51.8351 63.47 50.1197Z" fill="black"/>
<path d="M58.1746 68.9146C52.208 68.9146 47.3601 64.0667 47.3601 58.1C47.3601 52.1334 52.208 47.2855 58.1746 47.2855C64.1413 47.2855 68.9892 52.1334 68.9892 58.1C68.9146 64.0667 64.0667 68.9146 58.1746 68.9146ZM58.1746 49.6722C53.4759 49.6722 49.6722 53.4759 49.6722 58.1747C49.6722 62.8734 53.4759 66.6771 58.1746 66.6771C62.8734 66.6771 66.6771 62.8734 66.6771 58.1747C66.6771 53.4759 62.7988 49.6722 58.1746 49.6722Z" fill="#1A5A70"/>
<path d="M1.49166 59.5917C0.671246 59.5917 0 58.9205 0 58.1001C0 26.0294 26.0295 0 58.1001 0C67.7959 0 77.3425 2.46121 85.7704 7.01077C86.5162 7.38368 86.74 8.27869 86.3671 9.02452C85.9942 9.77035 85.0991 9.99409 84.3533 9.62117C76.3729 5.29536 67.2738 2.98332 58.0256 2.98332C27.5957 2.98332 2.83419 27.7448 2.83419 58.1747C2.98335 58.9951 2.31207 59.5917 1.49166 59.5917Z" fill="#1A5A70"/>
<path d="M58.1746 116.275C44.3768 116.275 31.0264 111.352 20.5102 102.477C10.1432 93.6761 3.20697 81.4445 0.894902 68.0942C0.745736 67.2738 1.26789 66.528 2.0883 66.3788C2.90871 66.2296 3.65449 66.7517 3.80365 67.5721C8.35321 94.049 31.2502 113.366 58.1746 113.366C71.0775 113.366 83.682 108.816 93.527 100.538C94.1236 100.016 95.0931 100.09 95.6152 100.687C96.1373 101.284 96.0628 102.253 95.4661 102.775C84.9499 111.427 71.7487 116.275 58.1746 116.275Z" fill="#1A5A70"/>
<path d="M99.4937 98.3003C99.1207 98.3003 98.7478 98.1511 98.524 97.9274C97.9274 97.4053 97.9274 96.4357 98.4495 95.8391C100.612 93.527 102.552 90.9912 104.342 88.3808C104.789 87.7095 105.684 87.4857 106.355 87.9332C107.027 88.3807 107.25 89.2757 106.803 89.947C105.013 92.7066 102.924 95.3915 100.612 97.7782C100.239 98.1511 99.8666 98.3003 99.4937 98.3003Z" fill="#1A5A70"/>
<path d="M110.905 80.2512C110.756 80.2512 110.532 80.2512 110.383 80.1767C109.637 79.8783 109.264 79.0579 109.562 78.2375C112.098 71.8233 113.366 65.1109 113.366 58.1747C113.366 42.2139 106.43 27.0736 94.422 16.5574C93.8253 16.0353 93.7508 15.0657 94.2729 14.4691C94.7949 13.8724 95.7645 13.7978 96.3611 14.3199C109.04 25.3582 116.349 41.3189 116.349 58.1747C116.349 65.4838 115.007 72.5692 112.396 79.3562C112.024 79.8783 111.501 80.2512 110.905 80.2512Z" fill="#1A5A70"/>
<path d="M75.2542 139.246H41.0207C37.2169 139.246 34.1591 142.304 34.1591 146.108V150.508H82.1904V146.108C82.1158 142.304 79.058 139.246 75.2542 139.246Z" fill="#EEF3F4"/>
<path d="M83.6074 152H32.6674V146.108C32.6674 141.484 36.3965 137.755 41.0206 137.755H75.2542C79.8783 137.755 83.6074 141.484 83.6074 146.108V152V152ZM35.576 149.017H80.6241V146.108C80.6241 143.125 78.1629 140.738 75.2542 140.738H41.0206C38.0373 140.738 35.6507 143.199 35.6507 146.108V149.017H35.576Z" fill="#1A5A70"/>
<path d="M60.5613 42.8106C60.4867 42.8106 60.4867 42.8106 60.4121 42.8106C59.6663 42.736 58.9205 42.6614 58.1747 42.6614C57.578 42.6614 57.0559 42.1393 57.0559 41.5426C57.0559 40.946 57.578 40.4239 58.1747 40.4239C58.9951 40.4239 59.8901 40.4985 60.7105 40.5731C61.3072 40.6476 61.7546 41.2443 61.68 41.841C61.6054 42.3631 61.0833 42.8106 60.5613 42.8106Z" fill="#1A5A70"/>
<path d="M44.8243 49.2993C44.6006 49.2993 44.3768 49.2247 44.1531 49.0755C43.631 48.7026 43.5565 47.9567 43.9294 47.5092C46.4652 44.153 50.1197 41.7664 54.1472 40.8714C54.7439 40.7222 55.3406 41.0951 55.4897 41.6918C55.6389 42.2885 55.266 42.8851 54.6693 43.0343C51.0894 43.8547 47.9569 45.943 45.7194 48.8518C45.4956 49.1501 45.1227 49.2993 44.8243 49.2993Z" fill="#1A5A70"/>
<path d="M50.0451 146.033H39.5289C38.9322 146.033 38.4102 145.511 38.4102 144.915C38.4102 144.318 38.9322 143.796 39.5289 143.796H50.0451C50.6417 143.796 51.1638 144.318 51.1638 144.915C51.2384 145.511 50.7163 146.033 50.0451 146.033Z" fill="#1A5A70"/>
<path d="M58.1747 146.033H53.4759C52.8793 146.033 52.3572 145.511 52.3572 144.915C52.3572 144.318 52.8793 143.796 53.4759 143.796H58.1747C58.7713 143.796 59.2934 144.318 59.2934 144.915C59.2934 145.511 58.7713 146.033 58.1747 146.033Z" fill="#1A5A70"/>
</svg>
