<svg width="127" height="146" viewBox="0 0 127 146" fill="none" xmlns="http://www.w3.org/2000/svg">
<path d="M96.2531 130.659H14.3238C13.6936 130.659 13.1334 130.379 12.7132 129.959C12.2931 129.539 12.083 128.909 12.083 128.278L16.9848 35.9853L0.458848 14.2775C-0.0313272 13.5773 -0.171369 12.667 0.248782 11.8967C0.598907 11.1264 1.36918 10.6362 2.2795 10.6362H88.2002C89.3907 10.6362 90.371 11.5466 90.441 12.737L98.4939 128.208C98.5639 128.839 98.3539 129.469 97.8637 129.889C97.4435 130.379 96.8833 130.659 96.2531 130.659ZM16.7047 126.178H93.8722L86.0995 15.1879H6.7611L21.0462 33.9546C21.3963 34.3748 21.5364 34.8649 21.4664 35.4251L16.7047 126.178Z" fill="black"/>
<path d="M90.2308 145.715H20.4159C15.8643 145.715 12.153 142.003 12.153 137.452V128.418C12.153 127.158 13.1333 126.178 14.3937 126.178H96.253C97.5135 126.178 98.4938 127.158 98.4938 128.418V137.452C98.4938 142.003 94.7825 145.715 90.2308 145.715ZM16.5645 130.659V137.452C16.5645 139.552 18.2451 141.233 20.3459 141.233H90.1608C92.2616 141.233 93.9422 139.552 93.9422 137.452V130.659H16.5645Z" fill="black"/>
<path d="M95.4828 119.735C95.3427 119.735 95.2027 119.735 95.0626 119.665C94.0823 119.455 93.312 118.615 93.242 117.634L92.0516 100.128C92.0516 99.7081 92.1216 99.3579 92.2616 98.9378L97.7936 87.8738C99.1241 85.2129 100.525 82.5519 101.995 79.8209C108.437 67.7066 115.16 55.2421 113.199 42.9177C112.499 38.4361 110.118 35.145 106.057 33.2543C101.715 31.2236 95.5528 31.1535 90.0909 32.9742C89.4607 33.1843 88.6904 33.1142 88.1302 32.6941C87.57 32.3439 87.2199 31.7137 87.1498 31.0135L86.5196 21.8402C86.4496 20.7898 87.1498 19.8095 88.2002 19.5294C96.3231 17.3586 105.006 17.9188 111.799 21.0699C119.852 24.8513 125.103 31.8538 126.504 40.817C129.095 57.623 121.042 72.7484 113.829 86.1232C112.429 88.7141 111.028 91.3051 109.768 93.826L97.5135 118.475C97.0934 119.245 96.3231 119.735 95.4828 119.735ZM96.5332 100.408L97.1634 109.161L105.847 91.8652C107.107 89.2743 108.507 86.6834 109.908 84.0224C116.77 71.2779 124.473 56.7827 122.092 41.5172C120.902 34.0946 116.63 28.2825 109.908 25.1314C104.516 22.6105 97.7236 21.9802 91.1413 23.3807L91.4914 27.9324C97.3035 26.5319 103.396 27.022 108.017 29.1928C111.729 30.9434 116.49 34.6548 117.681 42.2175C119.851 56.0124 112.779 69.1771 105.987 81.9217C104.586 84.5826 103.116 87.2436 101.855 89.8345L96.5332 100.408Z" fill="black"/>
<path d="M56.4089 108.251C53.1177 108.251 50.4568 105.59 50.4568 102.299V33.1144C50.4568 29.8232 53.1177 27.1622 56.4089 27.1622C59.7001 27.1622 62.361 29.8232 62.361 33.1144V102.299C62.361 105.59 59.7001 108.251 56.4089 108.251Z" fill="#FCB756"/>
<path d="M81.1977 15.1879C80.7075 15.1879 80.1473 15.0479 79.7271 14.6978C52.5574 -8.13041 25.0376 14.4877 24.7575 14.6978C23.7772 15.468 22.3767 15.398 21.6064 14.4176C20.8361 13.4373 20.9061 12.0368 21.8865 11.2665C22.1666 10.9864 52.6275 -13.9425 82.6682 11.2665C83.6486 12.0368 83.7186 13.5073 82.9483 14.4176C82.4581 14.9078 81.8279 15.1879 81.1977 15.1879Z" fill="black"/>
<path d="M106.477 135.141H96.2532V129.889H106.477C107.947 129.889 109.068 131.079 109.068 132.48C109.068 133.95 107.877 135.141 106.477 135.141Z" fill="black"/>
<path d="M46.3953 118.405C46.3953 120.436 44.7147 122.116 42.684 122.116C40.6533 122.116 38.9727 120.436 38.9727 118.405C38.9727 116.374 40.6533 114.693 42.684 114.693C44.7847 114.693 46.3953 116.374 46.3953 118.405Z" fill="#6BC9CD"/>
<path d="M60.1201 118.405C60.1201 120.436 58.4396 122.116 56.4088 122.116C54.3781 122.116 52.6975 120.436 52.6975 118.405C52.6975 116.374 54.3781 114.693 56.4088 114.693C58.4396 114.693 60.1201 116.374 60.1201 118.405Z" fill="#6BC9CD"/>
<path d="M73.845 118.405C73.845 120.436 72.1645 122.116 70.1337 122.116C68.103 122.116 66.4224 120.436 66.4224 118.405C66.4224 116.374 68.103 114.693 70.1337 114.693C72.1645 114.693 73.845 116.374 73.845 118.405Z" fill="#6BC9CD"/>
</svg>
