<svg width="44" height="44" viewBox="0 0 44 44" fill="none" xmlns="http://www.w3.org/2000/svg">
<path d="M19.0837 16.9309C18.717 16.8642 18.517 16.4641 18.6837 16.1308C19.5504 14.3306 21.2839 9.06346 14.4166 5.62982C6.04919 1.42943 26.7178 -1.83752 27.3512 2.49621C28.0179 6.7966 26.4511 15.6974 24.0842 16.7308C22.4507 17.4976 20.2172 17.1975 19.0837 16.9309Z" fill="#EE6F79"/>
<path d="M16.0167 21.698C15.7501 21.9646 15.3167 21.9313 15.1167 21.6313C13.9832 19.9978 10.2829 15.8641 3.91562 20.0645C-3.88509 25.2316 3.61561 5.69649 7.68265 7.29664C11.7497 8.89678 18.6503 14.6973 18.3836 17.2642C18.1836 19.0644 16.7835 20.8312 16.0167 21.698Z" fill="#EE6F79"/>
<path d="M18.5836 26.7318C18.6836 27.0985 18.4502 27.4652 18.0835 27.4985C16.0833 27.6652 10.6829 28.7986 11.1162 36.4327C11.683 45.7668 -1.48494 29.532 1.91537 26.7984C5.31568 24.0648 13.8165 20.9979 15.8833 22.498C17.3835 23.5648 18.2169 25.6317 18.5836 26.7318Z" fill="#EE6F79"/>
<path d="M24.2508 27.0318C24.6175 27.0985 24.8176 27.4985 24.6509 27.8319C23.7841 29.632 22.0506 34.8992 28.9179 38.3328C37.2853 42.5332 16.6168 45.8002 15.9834 41.4664C15.35 37.1327 16.8835 28.2652 19.2504 27.2318C20.8838 26.4651 23.1174 26.7984 24.2508 27.0318Z" fill="#EE6F79"/>
<path d="M27.318 22.298C27.5847 22.0313 28.018 22.0647 28.2181 22.3647C29.3515 23.9982 33.0518 28.1319 39.4191 23.9315C47.2198 18.7644 39.7191 38.2995 35.6521 36.6993C31.585 35.0992 24.6844 29.2987 24.9511 26.7318C25.1511 24.8983 26.5512 23.1314 27.318 22.298Z" fill="#EE6F79"/>
<path d="M24.7508 17.2308C24.6508 16.8641 24.8841 16.4974 25.2508 16.464C27.251 16.2973 32.6515 15.1639 32.2181 7.52988C31.6514 -1.8043 44.8193 14.4305 41.419 17.1641C38.0186 19.8977 29.5179 22.9646 27.451 21.4645C25.9509 20.3977 25.1175 18.3309 24.7508 17.2308Z" fill="#EE6F79"/>
<path d="M21.5838 17.7309C20.5837 17.7309 19.6503 17.5642 18.9836 17.4309C18.6502 17.3642 18.3835 17.1642 18.2501 16.8642C18.1168 16.5642 18.1168 16.2308 18.2501 15.9308C19.1502 14.0306 20.5503 9.29682 14.2164 6.12986C12.4829 5.26311 11.7162 4.29636 11.9829 3.29627C12.583 0.962721 18.8835 -0.204049 22.9172 0.0293059C25.9508 0.195988 27.6843 1.02939 27.8844 2.46286C28.5511 6.8966 27.0176 16.0641 24.3174 17.2642C23.4506 17.5976 22.4839 17.7309 21.5838 17.7309ZM21.8838 0.996069C17.8501 0.996069 13.3164 2.22951 12.983 3.52963C12.8497 3.99634 13.483 4.59639 14.6832 5.19645C22.0172 8.86345 19.9836 14.664 19.1836 16.3641C19.1836 16.3975 19.1836 16.3975 19.1836 16.4308C19.1836 16.4641 19.2169 16.4641 19.2169 16.4641C20.317 16.6975 22.3838 16.9975 23.9173 16.2975C25.9175 15.3974 27.5177 6.7966 26.8843 2.59621C26.7509 1.7628 25.2174 1.16274 22.8839 1.0294C22.5505 0.996061 22.2172 0.996069 21.8838 0.996069Z" fill="#1A5A70"/>
<path d="M15.5833 22.398C15.5499 22.398 15.5499 22.398 15.5166 22.398C15.1832 22.3646 14.8832 22.198 14.6832 21.9313C13.4831 20.1978 10.0828 16.5975 4.18223 20.4978C2.54875 21.5646 1.34866 21.7313 0.615257 20.9979C-1.0849 19.2977 1.0486 13.2971 3.2488 9.89682C4.91562 7.36326 6.48244 6.29651 7.84924 6.82989C12.0163 8.46338 19.1836 14.3639 18.8836 17.3309C18.6835 19.2977 17.2501 21.1312 16.4167 22.0646C16.1833 22.2646 15.8833 22.398 15.5833 22.398ZM9.18269 17.7309C12.683 17.7309 14.8165 20.2978 15.5499 21.3312C15.5499 21.3646 15.5833 21.3645 15.6166 21.3645C15.65 21.3645 15.6499 21.3646 15.6833 21.3312C16.45 20.4978 17.7168 18.8643 17.9168 17.1975C18.1502 15.0306 11.4829 9.33012 7.51587 7.76331C6.7158 7.46328 5.41569 8.4967 4.14891 10.4635C1.81536 14.0305 0.348541 19.2644 1.38197 20.2978C1.71533 20.6311 2.54875 20.3978 3.68219 19.6644C5.74904 18.2309 7.61588 17.7309 9.18269 17.7309Z" fill="#1A5A70"/>
<path d="M9.84949 39.7996C7.4826 39.7996 3.7156 35.2992 1.98211 31.8989C0.615318 29.1986 0.48198 27.2651 1.61542 26.3651C5.11574 23.5648 13.8165 20.3312 16.2167 22.0647C17.8169 23.2314 18.6836 25.3983 19.0836 26.5651C19.1837 26.8984 19.1504 27.2318 18.9503 27.4985C18.7503 27.7652 18.4503 27.9652 18.1169 27.9652C16.0167 28.1319 11.2163 29.2987 11.6497 36.366C11.783 38.2995 11.3163 39.4329 10.2829 39.6996C10.1495 39.7663 10.0162 39.7996 9.84949 39.7996ZM14.2165 22.5647C11.1829 22.5647 5.0157 24.9649 2.24878 27.1651C1.58205 27.6985 1.81541 29.332 2.88218 31.4322C4.81569 35.2325 8.58271 39.1329 10.0162 38.7329C10.4829 38.5995 10.6829 37.7661 10.6162 36.4327C10.1162 28.2319 16.1834 27.0985 18.0502 26.9651C18.0836 26.9651 18.0836 26.9651 18.1169 26.9318C18.1169 26.8984 18.1169 26.8984 18.1169 26.8651C17.7836 25.7983 16.9835 23.8648 15.65 22.8647C15.3167 22.6647 14.8499 22.5647 14.2165 22.5647Z" fill="#1A5A70"/>
<path d="M21.4172 43.9999C21.0838 43.9999 20.7171 43.9999 20.4171 43.9666C17.3835 43.7999 15.65 42.9665 15.45 41.533C14.7833 37.0993 16.3167 27.9318 19.017 26.7317C20.8172 25.9316 23.1174 26.265 24.3508 26.4983C24.6842 26.565 24.9508 26.765 25.0842 27.065C25.2175 27.365 25.2175 27.6984 25.0842 27.9985C24.1841 29.8986 22.784 34.6324 29.1179 37.7993C30.8514 38.6661 31.6181 39.6328 31.3514 40.6329C30.7847 42.8665 25.4176 43.9999 21.4172 43.9999ZM21.7506 27.2651C20.9505 27.2651 20.1504 27.3651 19.417 27.6984C17.4168 28.5985 15.8167 37.1993 16.4501 41.3997C16.5834 42.2331 18.1169 42.8331 20.4505 42.9665C24.6842 43.1998 29.9513 41.8664 30.3514 40.4663C30.4847 39.9995 29.8513 39.3995 28.6512 38.7994C21.3172 35.1324 23.3507 29.3319 24.1508 27.6317C24.1508 27.5984 24.1508 27.5984 24.1508 27.5651C24.1508 27.5317 24.1175 27.5317 24.1175 27.5317C23.5508 27.3984 22.684 27.2651 21.7506 27.2651Z" fill="#1A5A70"/>
<path d="M36.1852 37.2994C35.9518 37.2994 35.7185 37.266 35.4851 37.166C31.3181 35.5325 24.1508 29.632 24.4508 26.6651C24.6508 24.6982 26.0842 22.8647 26.9176 21.9313C27.151 21.6979 27.4511 21.5646 27.7844 21.5646C28.1178 21.5979 28.4178 21.7646 28.6178 22.0313C29.8179 23.7648 33.2182 27.3651 39.1188 23.4648C40.7523 22.398 41.9524 22.2313 42.6858 22.9647C44.3859 24.6649 42.2524 30.6654 40.0522 34.0657C38.7187 36.1992 37.3853 37.2994 36.1852 37.2994ZM27.751 22.598C27.7177 22.598 27.7177 22.598 27.7177 22.6313C26.951 23.4648 25.6842 25.0982 25.4842 26.7651C25.2508 28.9319 31.9181 34.6324 35.8851 36.1993C36.6852 36.4993 37.9853 35.4659 39.2521 33.499C41.5856 29.932 43.0525 24.6982 42.019 23.6648C41.6857 23.3314 40.8523 23.5648 39.7188 24.2982C37.5853 25.6983 35.7518 26.2317 34.1517 26.2317C30.6513 26.2317 28.5178 23.6648 27.7844 22.6313C27.7844 22.6313 27.7844 22.598 27.751 22.598Z" fill="#1A5A70"/>
<path d="M29.1511 22.398C28.2844 22.398 27.5843 22.2646 27.1176 21.8979C25.5175 20.7311 24.6507 18.5643 24.2507 17.3975C24.1506 17.0641 24.184 16.7308 24.384 16.4641C24.584 16.1974 24.8841 15.9974 25.2174 15.9974C27.3176 15.8307 32.1181 14.6639 31.6847 7.59661C31.5513 5.6631 32.018 4.52967 33.0515 4.26298C35.385 3.62959 39.5187 8.4967 41.3522 12.097C42.719 14.7973 42.8524 16.7308 41.7189 17.6309C38.8853 19.8644 32.7181 22.398 29.1511 22.398ZM25.2507 17.0975C25.5841 18.1642 26.3842 20.0978 27.7176 21.0978C29.4845 22.398 37.7519 19.4644 41.0855 16.8308C41.7523 16.2974 41.5189 14.6639 40.4522 12.5637C38.5187 8.76338 34.7516 4.86303 33.3182 5.26307C32.8515 5.39641 32.6514 6.22981 32.7181 7.56327C33.2181 15.764 27.151 16.8975 25.2841 17.0308C25.2508 17.0308 25.2508 17.0308 25.2174 17.0641C25.2508 17.0308 25.2174 17.0641 25.2507 17.0975Z" fill="#1A5A70"/>
<path d="M21.6837 31.1989C26.7652 31.1989 30.8846 27.0796 30.8846 21.9981C30.8846 16.9166 26.7652 12.7972 21.6837 12.7972C16.6023 12.7972 12.4829 16.9166 12.4829 21.9981C12.4829 27.0796 16.6023 31.1989 21.6837 31.1989Z" fill="#B9C8E6"/>
<path opacity="0.27" d="M27.5843 14.8973C28.9177 16.4975 29.7178 18.5643 29.7178 20.7979C29.7178 25.8983 25.5841 29.9987 20.517 29.9987C18.2834 29.9987 16.2166 29.1987 14.6165 27.8652C16.3166 29.8987 18.8502 31.1655 21.6838 31.1655C26.7842 31.1655 30.8846 27.0318 30.8846 21.9647C30.8846 19.1311 29.5845 16.5975 27.5843 14.8973Z" fill="black"/>
<path d="M21.6839 31.7322C16.3168 31.7322 11.9497 27.3652 11.9497 21.998C11.9497 16.6309 16.3168 12.2638 21.6839 12.2638C27.0511 12.2638 31.4181 16.6309 31.4181 21.998C31.3848 27.3652 27.0177 31.7322 21.6839 31.7322ZM21.6839 13.2972C16.8835 13.2972 12.9831 17.1976 12.9831 21.998C12.9831 26.7985 16.8835 30.6988 21.6839 30.6988C26.4844 30.6988 30.3847 26.7985 30.3847 21.998C30.3847 17.1976 26.4844 13.2972 21.6839 13.2972Z" fill="#1A5A70"/>
<path d="M21.6837 26.2984C24.0587 26.2984 25.9841 24.3731 25.9841 21.998C25.9841 19.623 24.0587 17.6976 21.6837 17.6976C19.3087 17.6976 17.3833 19.623 17.3833 21.998C17.3833 24.3731 19.3087 26.2984 21.6837 26.2984Z" fill="#EEF3F4"/>
<path opacity="0.27" d="M24.0507 18.3976C24.4841 19.0643 24.7508 19.8977 24.7508 20.7645C24.7508 23.1314 22.8173 25.0649 20.4504 25.0649C19.5837 25.0649 18.7502 24.7982 18.0835 24.3648C18.8502 25.5316 20.1837 26.2983 21.6838 26.2983C24.0507 26.2983 25.9842 24.3648 25.9842 21.9979C25.9842 20.4978 25.2175 19.1643 24.0507 18.3976Z" fill="black"/>
<path d="M21.6839 26.7984C19.017 26.7984 16.8501 24.6315 16.8501 21.9646C16.8501 19.2977 19.017 17.1309 21.6839 17.1309C24.3508 17.1309 26.5176 19.2977 26.5176 21.9646C26.4843 24.6315 24.3174 26.7984 21.6839 26.7984ZM21.6839 18.1976C19.5837 18.1976 17.8835 19.8978 17.8835 21.998C17.8835 24.0982 19.5837 25.7983 21.6839 25.7983C23.7841 25.7983 25.4842 24.0982 25.4842 21.998C25.4842 19.8978 23.7507 18.1976 21.6839 18.1976Z" fill="#1A5A70"/>
</svg>
