<svg width="134" height="92" viewBox="0 0 134 92" fill="none" xmlns="http://www.w3.org/2000/svg">
<path d="M132.083 82.0653H1.91686C0.83863 82.0653 0 81.2266 0 80.1484V1.91686C0 0.83863 0.83863 0 1.91686 0H132.083C133.161 0 134 0.83863 134 1.91686V80.1484C134 81.1667 133.161 82.0653 132.083 82.0653ZM3.83372 78.2316H130.226V3.8337H3.83372V78.2316Z" fill="black"/>
<path d="M98.1189 73.8588H10.1234C9.04517 73.8588 8.20654 73.0202 8.20654 71.9419V9.94372C8.20654 8.86549 9.04517 8.02686 10.1234 8.02686H98.1189C99.1971 8.02686 100.036 8.86549 100.036 9.94372V71.9419C100.036 72.9603 99.1971 73.8588 98.1189 73.8588ZM12.0402 70.0251H96.2021V11.8606H12.0402V70.0251Z" fill="black"/>
<path d="M122.109 19.849C122.926 16.4047 120.796 12.9503 117.352 12.1333C113.907 11.3163 110.453 13.4461 109.636 16.8904C108.819 20.3347 110.949 23.7891 114.393 24.6061C117.837 25.4231 121.292 23.2933 122.109 19.849Z" fill="#FCB756"/>
<path d="M115.85 45.4653C119.39 45.4653 122.259 42.5957 122.259 39.0558C122.259 35.516 119.39 32.6464 115.85 32.6464C112.31 32.6464 109.44 35.516 109.44 39.0558C109.44 42.5957 112.31 45.4653 115.85 45.4653Z" fill="#FCB756"/>
<path d="M122.619 51.9946H109.081V57.7452H122.619V51.9946Z" fill="#6BC9CD"/>
<path d="M122.619 64.0948H109.081V69.8453H122.619V64.0948Z" fill="#6BC9CD"/>
<path d="M31.6879 91.6495H14.017C12.9387 91.6495 12.1001 90.8109 12.1001 89.7326V80.1484C12.1001 79.0701 12.9387 78.2315 14.017 78.2315H31.6879C32.7662 78.2315 33.6048 79.0701 33.6048 80.1484V89.7326C33.6048 90.751 32.7662 91.6495 31.6879 91.6495ZM15.9338 87.8158H29.7711V82.0652H15.9338V87.8158Z" fill="black"/>
<path d="M119.983 91.6495H102.312C101.234 91.6495 100.395 90.8109 100.395 89.7326V80.1484C100.395 79.0701 101.234 78.2315 102.312 78.2315H119.983C121.061 78.2315 121.9 79.0701 121.9 80.1484V89.7326C121.9 90.751 121.001 91.6495 119.983 91.6495ZM104.169 87.8158H118.006V82.0652H104.169V87.8158Z" fill="black"/>
</svg>
