<svg width="119" height="150" viewBox="0 0 119 150" fill="none" xmlns="http://www.w3.org/2000/svg">
<path d="M61.6026 42.6282C38.3334 42.6282 19.4872 61.4744 19.4872 84.7436C19.4872 108.013 38.3334 126.859 61.6026 126.859C84.8718 126.859 103.718 108.013 103.718 84.7436C103.718 61.4744 84.8718 42.6282 61.6026 42.6282ZM61.6026 117.436C43.5257 117.436 28.8462 102.756 28.8462 84.6795C28.8462 66.6026 43.5257 51.9231 61.6026 51.9231C76.6667 51.9231 89.2949 62.0513 93.1411 75.8975C88.8462 76.4744 85.4488 80.1923 85.4488 84.6795C85.4488 89.1667 88.7821 92.8206 93.1411 93.4616C89.2949 107.308 76.6026 117.436 61.6026 117.436Z" fill="#6BC9CD"/>
<path d="M61.6026 119.487C42.4359 119.487 26.7949 103.91 26.7949 84.6795C26.7949 65.4487 42.3718 49.8718 61.6026 49.8718C77.1795 49.8718 90.9615 60.3205 95.1282 75.3205C95.2564 75.8974 95.1923 76.4743 94.8718 76.9872C94.5513 77.5 94.0385 77.8205 93.4615 77.8846C90.1282 78.3333 87.5641 81.2179 87.5641 84.6154C87.5641 88.0128 90.1282 90.8974 93.4615 91.3461C94.0385 91.4102 94.5513 91.7307 94.8718 92.2436C95.1923 92.7564 95.3205 93.3333 95.1282 93.9102C90.8974 109.038 77.1154 119.487 61.6026 119.487ZM61.6026 54.0384C44.6795 54.0384 30.8974 67.8205 30.8974 84.7436C30.8974 101.667 44.6795 115.449 61.6026 115.449C74.6154 115.449 86.2179 107.115 90.5128 94.9359C86.3462 93.3974 83.3974 89.2949 83.3974 84.7436C83.3974 80.1282 86.3462 76.0897 90.5128 74.5513C86.2179 62.3718 74.6154 54.0384 61.6026 54.0384Z" fill="black"/>
<path d="M116.667 150H2.05128C0.897434 150 0 149.103 0 147.949V24.6795C0 23.5256 0.897434 22.6282 2.05128 22.6282H116.667C117.821 22.6282 118.718 23.5256 118.718 24.6795V147.949C118.718 149.038 117.821 150 116.667 150ZM4.10257 145.897H114.615V26.7307H4.10257V145.897Z" fill="black"/>
<path d="M116.667 26.7308H2.05128C0.897434 26.7308 0 25.8333 0 24.6795V2.05128C0 0.897434 0.897434 0 2.05128 0H116.667C117.821 0 118.718 0.897434 118.718 2.05128V24.6154C118.718 25.7692 117.821 26.7308 116.667 26.7308ZM4.10257 22.6282H114.615V4.10257H4.10257V22.6282Z" fill="black"/>
<path d="M49.1667 26.7308H2.05128C0.897434 26.7308 0 25.8333 0 24.6795V2.05128C0 0.897434 0.897434 0 2.05128 0H49.1667C50.3205 0 51.218 0.897434 51.218 2.05128V24.6154C51.218 25.7692 50.2564 26.7308 49.1667 26.7308ZM4.10257 22.6282H47.1154V4.10257H4.10257V22.6282Z" fill="black"/>
<path d="M108.846 10H55.2565V17.9487H108.846V10Z" fill="#FCB756"/>
<path d="M16.6026 14.1667C16.6026 15.641 15.4487 16.7949 13.9744 16.7949C12.5 16.7949 11.3462 15.641 11.3462 14.1667C11.3462 12.6923 12.5 11.5385 13.9744 11.5385C15.4487 11.5385 16.6026 12.7564 16.6026 14.1667Z" fill="#6BC9CD"/>
<path d="M26.7949 14.1667C26.7949 15.641 25.641 16.7949 24.1667 16.7949C22.6923 16.7949 21.5385 15.641 21.5385 14.1667C21.5385 12.6923 22.6923 11.5385 24.1667 11.5385C25.641 11.5385 26.7949 12.7564 26.7949 14.1667Z" fill="#FCB756"/>
<path d="M36.9872 14.1667C36.9872 15.641 35.8333 16.7949 34.359 16.7949C32.8846 16.7949 31.7307 15.641 31.7307 14.1667C31.7307 12.6923 32.8846 11.5385 34.359 11.5385C35.8333 11.5385 36.9872 12.7564 36.9872 14.1667Z" fill="#6BC9CD"/>
<path d="M19.4231 136.667H15.1282V147.949H19.4231V136.667Z" fill="black"/>
<path d="M105.705 136.667H101.41V147.949H105.705V136.667Z" fill="black"/>
<path d="M61.6026 111.795C46.6667 111.795 34.4872 99.6154 34.4872 84.6795C34.4872 69.7436 46.6667 57.5641 61.6026 57.5641C62.7565 57.5641 63.6539 58.4615 63.6539 59.6154C63.6539 60.7692 62.7565 61.6667 61.6026 61.6667C48.9103 61.6667 38.5898 71.9872 38.5898 84.6795C38.5898 97.3718 48.9103 107.692 61.6026 107.692C62.7565 107.692 63.6539 108.59 63.6539 109.744C63.6539 110.897 62.6923 111.795 61.6026 111.795Z" fill="#6BC9CD"/>
</svg>
